<?xml version="1.0" standalone="no"?>
<!DOCTYPE svg PUBLIC "-//W3C//DTD SVG 20010904//EN"
 "http://www.w3.org/TR/2001/REC-SVG-20010904/DTD/svg10.dtd">
<svg version="1.0" xmlns="http://www.w3.org/2000/svg"
 width="470.000000pt" height="470.000000pt" viewBox="0 0 470.000000 470.000000"
 preserveAspectRatio="xMidYMid meet">
<metadata>
Created by potrace 1.14, written by Peter Selinger 2001-2017
</metadata>
<g transform="translate(0.000000,470.000000) scale(0.100000,-0.100000)"
fill="#000000" stroke="none">
<path d="M632 4603 c-58 -125 -80 -183 -107 -292 -30 -124 -37 -177 -37 -308
-1 -286 94 -574 279 -849 47 -70 112 -151 165 -206 33 -34 30 -34 -25 -7 -176
90 -334 245 -431 422 -41 76 -93 204 -102 254 -14 72 -23 37 -19 -74 4 -140
10 -181 42 -293 74 -259 271 -541 521 -748 35 -29 59 -52 53 -52 -34 0 -256
111 -374 186 -37 24 -72 44 -77 44 -6 0 -10 4 -10 9 0 5 -7 12 -15 15 -40 15
19 -138 87 -227 88 -114 208 -215 518 -437 433 -310 575 -437 700 -623 131
-194 192 -388 207 -657 3 -58 6 -106 8 -108 1 -1 66 145 145 325 79 181 155
355 171 388 15 33 82 186 149 340 67 154 124 282 126 284 4 4 63 -122 126
-269 11 -25 26 -58 33 -75 71 -154 272 -628 460 -1080 126 -302 230 -552 232
-555 6 -7 893 -8 893 -1 0 6 -46 113 -155 356 -7 17 -77 176 -155 355 -78 179
-150 343 -160 365 -10 22 -37 83 -60 135 -23 52 -49 111 -57 130 -8 19 -21 49
-28 65 -63 145 -280 639 -295 670 -140 304 -283 647 -285 684 -4 67 56 221
129 331 89 135 250 304 391 411 50 37 116 92 148 122 64 59 64 59 -8 95 -123
62 -302 51 -477 -30 -61 -28 -69 -29 -104 -18 -87 29 -211 17 -320 -32 -78
-34 -329 -174 -423 -236 -116 -76 -246 -208 -290 -294 l-34 -67 -28 55 c-69
137 -179 256 -324 350 -92 59 -206 115 -443 215 -325 138 -459 214 -559 316
-157 161 -215 392 -155 623 11 41 19 76 18 78 -2 1 -21 -37 -44 -85z"/>
<path d="M1297 1003 c-8 -21 -26 -63 -40 -93 -45 -100 -65 -144 -91 -208 -15
-34 -39 -91 -55 -125 -16 -34 -68 -152 -116 -262 -48 -110 -95 -216 -103 -235
-9 -19 -16 -38 -16 -42 -1 -3 -4 -10 -8 -14 -5 -4 -8 -10 -8 -14 0 -4 193 -7
430 -6 375 1 430 3 431 16 5 66 -8 193 -32 311 -37 185 -109 365 -202 504 -43
64 -158 203 -168 204 -4 1 -14 -16 -22 -36z"/>
</g>
</svg>
