<svg xmlns="http://www.w3.org/2000/svg" xmlns:xlink="http://www.w3.org/1999/xlink" viewBox="0 0 254.18 77.2"><defs><style>.cls-1{fill:url(#linear-gradient);}.cls-2,.cls-4,.cls-5,.cls-6,.cls-7{fill:#fff;}.cls-3,.cls-4,.cls-5,.cls-6,.cls-7{isolation:isolate;}.cls-4,.cls-5,.cls-6,.cls-7{font-size:48px;font-family:SofiaPro-Black, Sofia Pro;}.cls-5{letter-spacing:-0.01em;}.cls-6{letter-spacing:-0.02em;}.cls-7{letter-spacing:-0.03em;}</style><linearGradient id="linear-gradient" x1="8.41" y1="-175.55" x2="17.31" y2="-200.72" gradientTransform="matrix(1, 0, 0, -1, 0, -150)" gradientUnits="userSpaceOnUse"><stop offset="0" stop-color="#4d4d4d"/><stop offset="1" stop-color="#fff"/></linearGradient></defs><title>Asset 1</title><g id="Layer_2" data-name="Layer 2"><g id="Layer_1-2" data-name="Layer 1"><g id="Layer_2-2" data-name="Layer 2"><g id="Layer_1-2-2" data-name="Layer 1-2"><path class="cls-1" d="M21.06,41.62C17.37,35,5,31.87,1.76,26.76h0c.42,4.93,9.3,8.84,14.94,14.09h0l.65.62a17.44,17.44,0,0,1,2.23,2.68,16.57,16.57,0,0,1,2.51,6.75,21.38,21.38,0,0,1,.22,3.51A15.94,15.94,0,0,0,21.06,41.62Z"/><path class="cls-2" d="M18.39,63a24.22,24.22,0,0,0-.25-3.31,19.12,19.12,0,0,0-2.9-7.79c-.08-.12-.17-.23-.25-.34s-.19-.35-.31-.52l-.08,0a15.59,15.59,0,0,0-1.1-1.43L13.06,49l-.06.2-.06-.06L6.82,63.06h5.81Z"/><path class="cls-2" d="M44,40.82,37.67,26.54c-.19-1-.15-1.51.93-3.8a11.24,11.24,0,0,1,.92-1.55,22.89,22.89,0,0,1,2-2.41,18.94,18.94,0,0,1,3-2.71,23.55,23.55,0,0,0,2.92-2.5c-3.54-2.57-8.13.35-8.13.35-2.78-1.25-5.28.42-7.08,1.39-.62.33-1.44.77-2.31,1.3a21.69,21.69,0,0,0-2.66,1.85,9.51,9.51,0,0,0-1.91,2.06,8.24,8.24,0,0,0-.89,1.8c0-.13-.1-.27-.16-.39a11.46,11.46,0,0,0-3.48-4.42C17.68,15.1,13.52,14,9.24,11.82,1,7.6,4.47,0,4.47,0-3.26,13.25,8.29,24,8.29,24A14.34,14.34,0,0,1,.08,13.8C-1,23.87,8.77,30.39,8.77,30.39a28.44,28.44,0,0,1-7-3.63C5,31.87,17.37,35,21.06,41.62A15.94,15.94,0,0,1,22.28,54.4v.06L23.37,52l.48-1.08,5.82-13.25.63-1.44.63,1.44,4.26,9.69L41.73,63h12Z"/><g class="cls-3"><text class="cls-4" transform="translate(53.34 62.7)">udio</text><text class="cls-5" transform="translate(151.26 62.7)">b</text><text class="cls-6" transform="translate(180.01 62.7)">y</text><text class="cls-7" transform="translate(204.87 62.7)">r</text><text class="cls-4" transform="translate(224.99 62.7)">d</text></g></g></g></g></g></svg>