<svg xmlns="http://www.w3.org/2000/svg" xmlns:xlink="http://www.w3.org/1999/xlink" viewBox="0 0 255.57 78.72"><defs><style>.cls-1{fill:url(#linear-gradient);}.cls-2,.cls-4,.cls-5,.cls-6,.cls-7{fill:#ffc300;}.cls-3,.cls-4,.cls-5,.cls-6,.cls-7{isolation:isolate;}.cls-4,.cls-5,.cls-6,.cls-7{font-size:48px;font-family:SofiaPro-Black, Sofia Pro;}.cls-5{letter-spacing:-0.01em;}.cls-6{letter-spacing:-0.02em;}.cls-7{letter-spacing:-0.03em;}</style><linearGradient id="linear-gradient" x1="9.94" y1="-255.05" x2="17.82" y2="-273.36" gradientTransform="matrix(1, 0, 0, -1, 0, -224)" gradientUnits="userSpaceOnUse"><stop offset="0" stop-color="#ffc300"/><stop offset="1" stop-color="#ff0"/></linearGradient></defs><title>Asset 2</title><g id="Layer_2" data-name="Layer 2"><g id="Layer_1-2" data-name="Layer 1"><g id="Layer_2-2" data-name="Layer 2"><g id="Layer_1-2-2" data-name="Layer 1-2"><path class="cls-1" d="M21.36,42.22C17.62,35.53,5,32.32,1.79,27.14h0c.43,5,9.43,9,15.15,14.29h0l.65.63a17.69,17.69,0,0,1,2.26,2.72,16.81,16.81,0,0,1,2.55,6.85,21.69,21.69,0,0,1,.22,3.56A16.17,16.17,0,0,0,21.36,42.22Z"/><path class="cls-2" d="M14.88,51.81l-.08-.12a15.83,15.83,0,0,0-1.12-1.45l-.44-.49-.07.16a20.39,20.39,0,0,1,2,2.43A4,4,0,0,0,14.88,51.81Z"/><path class="cls-2" d="M12.18,64Z"/><path class="cls-2" d="M18.65,63.94a24.56,24.56,0,0,0-.26-3.35,19.39,19.39,0,0,0-2.94-7.9c-.08-.12-.18-.23-.26-.35a20.39,20.39,0,0,0-2-2.43l-.06-.06L6.92,64h5.9Z"/><path class="cls-2" d="M44.57,41.41,38.21,26.92c-.19-1-.15-1.54,1-3.86a11.4,11.4,0,0,1,.93-1.58,23.22,23.22,0,0,1,2-2.44,19.21,19.21,0,0,1,3-2.74,23.89,23.89,0,0,0,3-2.54c-3.59-2.61-8.24.35-8.24.35-2.82-1.27-5.35.42-7.19,1.41-.62.34-1.46.78-2.34,1.31a22,22,0,0,0-2.69,1.88,9.64,9.64,0,0,0-1.94,2.09,8.36,8.36,0,0,0-.9,1.83l-.16-.4A11.63,11.63,0,0,0,21,17.76C17.93,15.31,13.72,14.21,9.38,12,1,7.71,4.54,0,4.54,0-3.31,13.44,8.41,24.37,8.41,24.37A14.55,14.55,0,0,1,.08,14C-1,24.21,8.89,30.82,8.89,30.82a28.85,28.85,0,0,1-7.11-3.68C5,32.32,17.62,35.53,21.36,42.22a16.17,16.17,0,0,1,1.24,13v.06l1.11-2.51.48-1.1L30.1,38.23l.64-1.46.64,1.46L35.7,48l6.63,15.91H54.48Z"/><g class="cls-3"><text class="cls-4" transform="translate(54.73 64.22)">udio</text><text class="cls-5" transform="translate(152.65 64.22)">b</text><text class="cls-6" transform="translate(181.4 64.22)">y</text><text class="cls-7" transform="translate(206.26 64.22)">r</text><text class="cls-4" transform="translate(226.38 64.22)">d</text></g></g></g></g></g></svg>